<?xml version="1.0" encoding="UTF-8" standalone="no"?>
<svg
   xmlns:dc="http://purl.org/dc/elements/1.1/"
   xmlns:cc="http://creativecommons.org/ns#"
   xmlns:rdf="http://www.w3.org/1999/02/22-rdf-syntax-ns#"
   xmlns:svg="http://www.w3.org/2000/svg"
   xmlns="http://www.w3.org/2000/svg"
   xmlns:sodipodi="http://sodipodi.sourceforge.net/DTD/sodipodi-0.dtd"
   xmlns:inkscape="http://www.inkscape.org/namespaces/inkscape"
   width="210mm"
   height="297mm"
   viewBox="0 0 210 297"
   version="1.1"
   id="svg8"
   inkscape:version="1.0.1 (3bc2e813f5, 2020-09-07)"
   sodipodi:docname="kirjat-ml.svg">
  <defs
     id="defs2" />
  <sodipodi:namedview
     id="base"
     pagecolor="#ffffff"
     bordercolor="#666666"
     borderopacity="1.0"
     inkscape:pageopacity="0.0"
     inkscape:pageshadow="2"
     inkscape:zoom="4.399672"
     inkscape:cx="476.72947"
     inkscape:cy="286.02114"
     inkscape:document-units="mm"
     inkscape:current-layer="layer1"
     inkscape:document-rotation="0"
     showgrid="false"
     inkscape:window-width="1920"
     inkscape:window-height="1016"
     inkscape:window-x="0"
     inkscape:window-y="0"
     inkscape:window-maximized="1" />
  <metadata
     id="metadata5">
    <rdf:RDF>
      <cc:Work
         rdf:about="">
        <dc:format>image/svg+xml</dc:format>
        <dc:type
           rdf:resource="http://purl.org/dc/dcmitype/StillImage" />
        <dc:title></dc:title>
      </cc:Work>
    </rdf:RDF>
  </metadata>
  <g
     inkscape:label="Taso 1"
     inkscape:groupmode="layer"
     id="layer1">
    <path
       style="fill:#da5813;stroke:none;stroke-width:0.165447"
       d="m 147.91019,65.517119 v 16.048385 c 0,2.592062 -0.40038,5.558367 0.0774,8.106916 0.59975,3.199751 4.08142,3.964282 6.70591,2.647157 l -0.66179,-1.985368 c -3.95154,0.900695 -3.1435,-3.484815 -3.1435,-6.121549 V 70.645984 c 0,-1.091621 0.51735,-3.995717 -0.17008,-4.863653 -0.45101,-0.56947 -2.14883,-0.265212 -2.80797,-0.265212 M 42.685889,66.783287 c -2.57833,0.808375 -1.156973,4.760083 1.488198,3.920107 2.507519,-0.796297 1.064488,-4.720541 -1.488198,-3.920107 m 22.997171,-0.01969 c -2.607615,0.624232 -1.522281,4.597283 1.1578,3.982646 2.57287,-0.59015 1.498456,-4.618626 -1.1578,-3.982646 M 19.854,67.17159 v 25.478879 h 2.978051 V 79.580137 l 7.705872,8.603258 4.040884,4.296996 3.970735,0.17008 -7.251719,-8.106916 -4.825932,-5.128865 v -0.165448 l 6.632781,-6.783338 4.948528,-5.294312 -3.474393,0.09976 -3.143663,3.043734 -8.603093,8.934152 V 67.171588 H 19.854 m 73.458588,2.647156 v 5.128865 h -2.316262 v 2.481709 h 2.316262 c 0,5.290177 -2.129472,15.398509 5.625212,15.386596 1.04314,-0.0017 1.97825,-0.21475 2.97805,-0.496341 l -0.49634,-2.150815 c -1.46289,0.301776 -3.07004,0.664436 -4.26623,-0.531747 -1.01369,-1.01353 -0.86264,-2.459374 -0.86264,-3.769882 v -8.437811 h 4.79797 v -2.481705 h -4.79797 v -5.128865 h -2.978052 m -20.350014,6.452443 0.661789,2.150815 c 3.056804,-0.525957 8.77979,-3.007004 10.127193,1.654473 0.213262,0.73806 0.130538,1.556197 0.130538,2.316261 -3.197434,0 -8.101457,0.02085 -10.387772,2.649638 -2.242804,2.578827 -0.560205,6.663389 2.446303,7.64962 3.059947,1.003604 5.624876,-0.06204 8.272363,-1.530552 0.378213,1.59061 1.199989,1.489025 2.647157,1.489025 0,-6.07208 2.311133,-16.840547 -5.956102,-17.914961 -1.132156,-0.147083 -2.180926,-0.06618 -3.308945,0.09397 -1.640575,0.232619 -3.113222,0.818302 -4.632524,1.441707 m 45.001656,0.165448 c -0.26752,-0.783724 -2.09969,-2.634913 -2.59454,-0.968198 -0.46193,1.556032 -0.0526,3.811409 -0.0526,5.435274 v 11.746756 h 2.97805 v -9.761389 c 0,-1.066638 -0.36945,-2.995753 0.17008,-3.940126 1.50888,-2.64087 6.86573,-2.125502 8.19874,0.300286 0.77479,1.409942 0.56533,3.085592 0.56533,4.632524 v 8.768705 h 2.97805 v -9.761389 c 0,-0.973822 -0.47219,-2.86869 -0.0905,-3.728354 0.27514,-0.619765 1.17087,-0.997151 1.74497,-1.270635 2.17133,-1.034211 5.41195,-1.011048 6.71435,1.359149 0.77479,1.409942 0.56533,3.085592 0.56533,4.632524 v 8.768705 h 2.97805 v -8.768705 c 0,-1.931762 0.14494,-3.972389 -0.64193,-5.790655 -2.03351,-4.699198 -9.25446,-4.214438 -12.26295,-0.827236 -3.45702,-3.722067 -7.13508,-2.600666 -11.25042,-0.827236 M 53.605243,77.59477 c -0.04699,-2.276555 -0.436449,-2.647157 -2.647156,-2.647157 v 17.702858 h 2.812604 v -8.603258 c 0,-1.121236 -0.299791,-2.762804 0.155189,-3.804625 1.116438,-2.556161 4.509266,-2.788118 6.793596,-2.316924 0.20532,-0.641935 0.754605,-1.76433 0.533237,-2.435549 -0.217729,-0.6603 -1.626016,-0.673867 -2.18771,-0.645906 -2.304515,0.11482 -3.868322,1.160116 -5.45976,2.750561 M 41.858487,92.650471 h 2.978051 V 80.903715 c 0,-1.623865 0.409317,-3.879242 -0.05261,-5.435274 -0.216074,-0.727968 -1.974117,-0.700338 -2.541932,-0.421063 -0.826905,0.406835 -0.383507,3.387864 -0.383507,4.201864 V 92.650471 M 64.855658,74.947613 c 0,6.200633 0.708445,12.8761 -0.04732,19.026436 -0.15519,1.262363 -0.509081,2.478235 -1.330692,3.474393 -0.460606,0.55855 -1.65133,1.259881 -1.765985,2.000092 -0.08305,0.536876 0.444888,1.174176 0.662286,1.639746 5.389445,-2.255706 5.294312,-6.926283 5.294312,-11.912201 V 74.947613 h -2.812601 m 19.026436,9.430495 c 0,1.211405 0.417258,3.37347 -0.17008,4.451689 -1.159951,2.129638 -5.769808,2.225432 -7.405254,0.754605 -1.742656,-1.567282 -0.630189,-3.835729 1.288338,-4.484613 0.791499,-0.267694 1.653811,-0.407166 2.481709,-0.508916 1.254421,-0.154032 2.54127,-0.212765 3.805287,-0.212765 m 23.493516,4.071657 c -2.97822,0.185466 -2.65907,4.782253 0.33089,4.596125 3.0176,-0.187948 2.69034,-4.784073 -0.33089,-4.596125 z"
       id="path42" />
  </g>
</svg>
