<svg version="1.1" xmlns="http://www.w3.org/2000/svg" xmlns:xlink="http://www.w3.org/1999/xlink" width="48" height="48"><defs><linearGradient x1="14.22989" y1="21.41671" x2="54.98331" y2="47.79648" gradientUnits="userSpaceOnUse" id="color-1"><stop offset="0" stop-color="#000000" stop-opacity="0.3"></stop><stop offset="1" stop-color="#000000" stop-opacity="0"></stop></linearGradient><filter id="dropshadow-base"><feColorMatrix type="matrix" values="0 0 0 0 0  0 0 0 0 0  0 0 0 0 0  0 0 0 .8 0"></feColorMatrix> <feOffset dx="0" dy="1"></feOffset> <feGaussianBlur stdDeviation="1"></feGaussianBlur> <feComposite in="SourceGraphic"></feComposite></filter><filter id="dropshadow-banner" x="-10%" y="-10%" width="120%" height="130%"><feColorMatrix type="matrix" values="0 0 0 0 0  0 0 0 0 0  0 0 0 0 0  0 0 0 .4 0"></feColorMatrix> <feOffset dx="0" dy="1"></feOffset> <feGaussianBlur stdDeviation="0.5"></feGaussianBlur> <feComposite in="SourceGraphic"></feComposite></filter></defs><g fill="none" fill-rule="nonzero" stroke="none" stroke-width="none" stroke-linecap="butt" stroke-linejoin="miter" stroke-miterlimit="10" stroke-dasharray="" stroke-dashoffset="0" font-family="none" font-weight="none" font-size="none" text-anchor="none" style="mix-blend-mode: normal"><path d="M4,40c-1.10457,0 -2,-0.89543 -2,-2v-28c0,-1.10457 0.89543,-2 2,-2h40c1.10457,0 2,0.89543 2,2v28c0,1.10457 -0.89543,2 -2,2z" id="base 1 5 1" fill="#512da8" stroke-width="1"></path><path d="M14.22989,25.36051l0,-3.69227h0.43157l0.8586,0.8586l0.38812,-0.40305l0.45556,-0.44108l0.50349,-0.01446l1.87011,1.87011l0,-0.13296l-1.29609,-1.29609c0.07351,0.07351 0.18307,0.11203 0.31299,0.07077c0.24136,-0.07665 0.23015,-0.35327 0.087,-0.49641l1.13828,1.13828c0.02736,0.01008 0.04956,0.02363 0.06755,0.04162l0.1987,0.1987c0.19088,-0.16418 0.39254,-0.26848 0.66638,-0.28212c0.07055,-0.00351 0.23329,-0.00251 0.29594,0.06014l0.55471,0.55471c-0.00656,-0.20225 -0.0115,-0.40272 -0.0115,-0.59987l0.40759,0l1.21635,1.21635c0.06805,-0.02616 0.13974,-0.04735 0.21348,-0.0645l-1.83693,-1.83693c-0.14723,-0.14723 -0.14035,-0.43873 0.1194,-0.50091c0.11932,-0.02857 0.21661,0.00781 0.28296,0.07416l1.15933,1.15933c0.09196,-0.0281 0.18587,-0.05071 0.28393,-0.06461c0.16347,-0.02321 0.31545,-0.03494 0.47952,-0.01362c0.24673,0.03206 0.42844,0.12371 0.56145,0.25672l1.19872,1.19872c-0.00475,-0.25046 0.01365,-0.50934 0.0265,-0.74093l-0.32415,-0.32415v-0.35964h0.33566v-0.74325l0.43157,0l2.75721,2.75721v-1.15084c0,-0.23531 -0.05932,-0.56215 0.00762,-0.78765c0.04788,-0.16128 0.18218,-0.09525 0.27768,0.00025l0.12752,0.12752c0.56887,-0.24288 1.08016,-0.39009 1.56134,0.09109l0.04052,0.04052c0.37551,-0.42173 1.20194,-0.53227 1.61291,-0.1213l1.08541,1.08541c0.00528,-0.11603 0.01022,-0.23029 0.01022,-0.33993l0,-2.32565l-0.00001,-0.00001c0.09279,0 0.3276,-0.04161 0.40087,0.03166l12.81203,12.81203v3.72783c0,1.10457 -0.89543,2 -2,2l-15.13062,0z" fill="url(#color-1)" stroke-width="1"></path><path d="M32.78711,21.42849v2.32565c0,0.37563 -0.05802,0.80549 0.01122,1.17481c0.08691,0.46369 0.59146,0.57448 0.97178,0.38361l-0.0959,-0.28771c-0.57264,0.13052 -0.45554,-0.505 -0.45554,-0.8871v-1.96601c0,-0.15819 0.07497,-0.57904 -0.02465,-0.70481c-0.06536,-0.08252 -0.3114,-0.03843 -0.40692,-0.03843zM17.53857,21.61198c-0.37364,0.11715 -0.16766,0.68981 0.21566,0.56808c0.36338,-0.1154 0.15426,-0.68408 -0.21566,-0.56808zM20.87119,21.60912c-0.37788,0.09046 -0.2206,0.66621 0.16778,0.57714c0.37285,-0.08552 0.21715,-0.66931 -0.16778,-0.57714zM14.22989,21.66825v3.69226h0.43156v-1.89408l1.11669,1.24674l0.58558,0.6227l0.57542,0.02465l-1.05088,-1.17481l-0.69935,-0.74325v-0.02398l0.96119,-0.98301l0.71711,-0.76722l-0.50349,0.01446l-0.45556,0.44108l-1.24671,1.29469v-1.75023h-0.43156zM24.87512,22.05186v0.74325h-0.33566v0.35964h0.33566c0,0.76662 -0.30859,2.23147 0.81518,2.22974c0.15117,-0.00025 0.28668,-0.03112 0.43156,-0.07193l-0.07193,-0.31168c-0.21199,0.04373 -0.44489,0.09629 -0.61824,-0.07706c-0.1469,-0.14688 -0.12501,-0.3564 -0.12501,-0.54631v-1.22276h0.6953v-0.35964h-0.6953v-0.74325h-0.43156zM21.9261,22.98691l0.0959,0.31168c0.44298,-0.07622 1.27232,-0.43576 1.46758,0.23976c0.0309,0.10696 0.01892,0.22552 0.01892,0.33566c-0.46336,0 -1.17402,0.00302 -1.50534,0.38397c-0.32502,0.37371 -0.08118,0.96562 0.35451,1.10854c0.44343,0.14544 0.81513,-0.00899 1.19879,-0.2218c0.05481,0.2305 0.1739,0.21578 0.38361,0.21578c0,-0.87993 0.33492,-2.44044 -0.86313,-2.59614c-0.16407,-0.02131 -0.31605,-0.00959 -0.47951,0.01362c-0.23774,0.03371 -0.45115,0.11858 -0.67132,0.20892zM28.4475,23.01089c-0.03877,-0.11357 -0.30428,-0.38184 -0.37599,-0.14031c-0.06694,0.22549 -0.00762,0.55233 -0.00762,0.78765v1.70228h0.43156v-1.41457c0,-0.15457 -0.05354,-0.43413 0.02465,-0.57098c0.21866,-0.3827 0.99494,-0.30802 1.18812,0.04352c0.11228,0.20432 0.08192,0.44715 0.08192,0.67132v1.27071h0.43156v-1.41457c0,-0.14112 -0.06843,-0.41572 -0.01311,-0.54029c0.03987,-0.08981 0.16968,-0.1445 0.25287,-0.18413c0.31466,-0.14987 0.78427,-0.14652 0.97301,0.19696c0.11228,0.20432 0.08192,0.44715 0.08192,0.67132v1.27071h0.43156v-1.27071c0,-0.27994 0.021,-0.57566 -0.09303,-0.83915c-0.29469,-0.68098 -1.34111,-0.61073 -1.77708,-0.11988c-0.50097,-0.53938 -1.03398,-0.37687 -1.63035,-0.11988zM19.12094,23.17872c-0.00681,-0.32991 -0.06325,-0.38361 -0.38361,-0.38361v2.5654h0.40759v-1.24674c0,-0.16248 -0.04344,-0.40037 0.02249,-0.55135c0.16179,-0.37043 0.65346,-0.40404 0.98449,-0.33576c0.02975,-0.09303 0.10935,-0.25568 0.07727,-0.35295c-0.03155,-0.09569 -0.23563,-0.09765 -0.31703,-0.0936c-0.33396,0.01664 -0.56058,0.16812 -0.7912,0.3986zM17.41866,25.36051h0.43156v-1.70228c0,-0.23532 0.05932,-0.56216 -0.00762,-0.78765c-0.03131,-0.10549 -0.28608,-0.10149 -0.36836,-0.06102c-0.11983,0.05896 -0.05558,0.49095 -0.05558,0.60891v1.94203zM20.75129,22.79511c0,0.89856 0.10266,1.86594 -0.00686,2.75721c-0.02249,0.18293 -0.07377,0.35913 -0.19284,0.50349c-0.06675,0.08094 -0.2393,0.18258 -0.25592,0.28984c-0.01204,0.0778 0.06447,0.17016 0.09597,0.23762c0.78101,-0.32688 0.76722,-1.00372 0.76722,-1.72625v-2.06191h-0.40759zM23.5085,24.16173c0,0.17555 0.06047,0.48887 -0.02465,0.64511c-0.16809,0.30862 -0.83613,0.3225 -1.07313,0.10935c-0.25254,-0.22712 -0.09132,-0.55585 0.1867,-0.64989c0.1147,-0.03879 0.23966,-0.059 0.35964,-0.07375c0.18178,-0.02232 0.36827,-0.03083 0.55144,-0.03083zM26.91305,24.75177c-0.43159,0.02688 -0.38534,0.69302 0.04795,0.66605c0.43729,-0.02724 0.38987,-0.69328 -0.04795,-0.66605z" id="path42 1 1" fill="none" stroke-width="0"></path><path d="M32.78711,21.42849c0.09552,0 0.34155,-0.04409 0.40691,0.03843c0.09962,0.12578 0.02465,0.54662 0.02465,0.70481v1.96601c0,0.3821 -0.1171,1.01763 0.45554,0.8871l0.0959,0.28771c-0.38033,0.19087 -0.88487,0.08008 -0.97178,-0.38361c-0.06924,-0.36932 -0.01122,-0.79918 -0.01122,-1.17481zM17.53857,21.61198c0.36992,-0.11599 0.57904,0.45269 0.21566,0.56808c-0.38332,0.12172 -0.5893,-0.45094 -0.21566,-0.56808zM20.87119,21.60912c0.38493,-0.09216 0.54063,0.49162 0.16778,0.57714c-0.38838,0.08907 -0.54566,-0.48668 -0.16778,-0.57714zM14.22989,21.66825h0.43156v1.75023l1.24671,-1.29469l0.45556,-0.44108l0.50349,-0.01446l-0.71711,0.76722l-0.96119,0.98301v0.02398l0.69935,0.74325l1.05088,1.17481l-0.57542,-0.02465l-0.58558,-0.6227l-1.11669,-1.24674v1.89408h-0.43156zM24.87512,22.05186h0.43156v0.74325h0.6953v0.35964h-0.6953v1.22276c0,0.18991 -0.02189,0.39944 0.12501,0.54631c0.17335,0.17334 0.40625,0.12079 0.61824,0.07706l0.07193,0.31168c-0.14489,0.04081 -0.2804,0.07168 -0.43156,0.07193c-1.12377,0.00173 -0.81518,-1.46312 -0.81518,-2.22974h-0.33566v-0.35964h0.33566zM21.9261,22.98691c0.22017,-0.09034 0.43358,-0.17521 0.67132,-0.20892c0.16347,-0.02321 0.31545,-0.03493 0.47951,-0.01362c1.19804,0.1557 0.86313,1.71621 0.86313,2.59614c-0.20972,0 -0.3288,0.01472 -0.38361,-0.21578c-0.38366,0.21281 -0.75536,0.36724 -1.19879,0.2218c-0.43569,-0.14292 -0.67952,-0.73483 -0.35451,-1.10854c0.33132,-0.38095 1.04199,-0.38397 1.50534,-0.38397c0,-0.11014 0.01199,-0.2287 -0.01892,-0.33566c-0.19526,-0.67552 -1.0246,-0.31598 -1.46758,-0.23976l-0.0959,-0.31168zM28.4475,23.01089c0.59637,-0.257 1.12938,-0.4195 1.63035,0.11988c0.43597,-0.49086 1.4824,-0.5611 1.77708,0.11988c0.11403,0.26349 0.09303,0.55921 0.09303,0.83915v1.27071h-0.43156v-1.27071c0,-0.22417 0.03035,-0.467 -0.08192,-0.67132c-0.18874,-0.34348 -0.65835,-0.34683 -0.97301,-0.19696c-0.0832,0.03963 -0.213,0.09432 -0.25287,0.18413c-0.05531,0.12458 0.01311,0.39917 0.01311,0.54029v1.41457h-0.43156v-1.27071c0,-0.22417 0.03035,-0.467 -0.08192,-0.67132c-0.19317,-0.35153 -0.96946,-0.42622 -1.18812,-0.04352c-0.07819,0.13685 -0.02465,0.41641 -0.02465,0.57098v1.41457h-0.43156v-1.70228c0,-0.23532 -0.05932,-0.56216 0.00762,-0.78765c0.07171,-0.24153 0.33722,0.02673 0.37599,0.14031zM19.12094,23.17872c0.23062,-0.23048 0.45724,-0.38196 0.7912,-0.3986c0.0814,-0.00405 0.28548,-0.00209 0.31703,0.0936c0.03208,0.09727 -0.04752,0.25992 -0.07727,0.35295c-0.33103,-0.06828 -0.8227,-0.03467 -0.98449,0.33576c-0.06593,0.15098 -0.02249,0.38886 -0.02249,0.55135v1.24674h-0.40759v-2.5654c0.32036,0 0.3768,0.05371 0.38361,0.38361zM17.41866,25.36051v-1.94203c0,-0.11796 -0.06425,-0.54996 0.05558,-0.60891c0.08228,-0.04047 0.33705,-0.04448 0.36836,0.06102c0.06694,0.22549 0.00762,0.55233 0.00762,0.78765v1.70228zM20.75129,22.79511h0.40759v2.06191c0,0.72253 0.01379,1.39937 -0.76722,1.72625c-0.0315,-0.06747 -0.10801,-0.15982 -0.09597,-0.23762c0.01662,-0.10727 0.18917,-0.2089 0.25592,-0.28984c0.11906,-0.14436 0.17035,-0.32056 0.19284,-0.50349c0.10952,-0.89127 0.00686,-1.85865 0.00686,-2.75721zM23.5085,24.16173c-0.18317,0 -0.36966,0.00851 -0.55144,0.03083c-0.11997,0.01475 -0.24494,0.03496 -0.35964,0.07375c-0.27802,0.09403 -0.43924,0.42276 -0.1867,0.64989c0.237,0.21314 0.90504,0.19926 1.07313,-0.10935c0.08511,-0.15625 0.02465,-0.46956 0.02465,-0.64511zM26.961,25.41781c-0.43329,0.02697 -0.47954,-0.63917 -0.04795,-0.66605c0.43782,-0.02724 0.48525,0.63881 0.04795,0.66605z" id="path42 1 1" fill="#ffffff" stroke-width="0"></path><path d="M2,24c0,-12.15026 9.84974,-22 22,-22c12.15026,0 22,9.84974 22,22c0,12.15026 -9.84974,22 -22,22c-12.15026,0 -22,-9.84974 -22,-22z" id="base 1 1 1" fill="none" stroke-width="1"></path><g id="svg8 1 1" fill="#000000" stroke-width="1" font-family="Roboto, sans-serif" font-weight="400" font-size="14" text-anchor="start"><g id="layer1 1 1"></g></g><rect x="2" y="2" width="44" height="22" fill="none" stroke-width="1"></rect><path d="M2,24v-22h44v22z" fill="none" stroke-width="1"></path><path d="M2,24v-22h44v22z" fill="none" stroke-width="1"></path><path d="M2,24v-22h44v22z" fill="none" stroke-width="1"></path><path d="M2,24v-22h44v22z" fill="none" stroke-width="1"></path></g></svg>